<svg version="1.1" xmlns="http://www.w3.org/2000/svg" xmlns:xlink="http://www.w3.org/1999/xlink" width="137.27862" height="202.88988" viewBox="0,0,137.27862,202.88988"><g transform="translate(-169.09194,-58.44961)"><g data-paper-data="{&quot;isPaintingLayer&quot;:true}" fill-rule="nonzero" stroke-linejoin="miter" stroke-miterlimit="10" stroke-dasharray="" stroke-dashoffset="0" style="mix-blend-mode: normal"><path d="M239.11544,255.08647l-0.05599,-16.19626l16.65465,-3.11449l19.79519,6.00198l0.36028,3.73306l-5.15726,12.93157l-8.88728,1.6113l-14.38877,-4.63985z" fill="#666666" stroke="#000000" stroke-width="2.5" stroke-linecap="round"/><path d="M214.48551,254.99397l-0.05599,-16.19626l16.65465,-3.11449l19.79519,6.00198l0.36028,3.73306l-5.15727,12.93156l-8.88728,1.61129l-14.38877,-4.63985z" fill="#666666" stroke="#000000" stroke-width="2.5" stroke-linecap="round"/><path d="M247.89395,149.96091l9.06204,22.83462l11.42939,36.49275l3.50441,19.72321l2.86043,2.89264l-63.81789,22.29917l-14.58405,-50.48622l-2.51618,-9.81497l0.20435,-9.21423l-5.67081,-23.80845l-3.20129,-14.75743l0.72623,-6.94565c0,0 28.49275,-7.12144 36.36139,-7.7182c4.04648,-0.30689 11.98155,1.04963 11.98155,1.04963c0,0 4.47554,6.84389 7.66198,9.33504c2.77603,2.1703 5.99845,8.1181 5.99845,8.1181z" fill="#979797" stroke="#000000" stroke-width="2.5" stroke-linecap="round"/><path d="M211.05615,254.03894c0,0 -13.85753,-43.91694 -15.19787,-58.42192c-1.04072,-11.26245 -5.26686,-27.74104 -7.46998,-39.32235c-1.92497,-10.11911 -1.92195,-16.16006 -1.92195,-16.16006c0,0 16.72357,-4.59932 24.75158,-6.5714c8.23651,-2.0233 22.73981,-0.54511 22.73981,-0.54511l12.3922,14.57981l-44.84084,6.57129c0,0 9.70011,44.66619 15.01313,61.82143c7.02902,22.69608 17.10313,30.91949 17.10313,30.91949z" fill="#787878" stroke="#787878" stroke-width="0.5" stroke-linecap="round"/><path d="M247.89394,149.96088l9.06204,22.83462l11.42939,36.49275l3.50441,19.72322l2.86043,2.89264l-63.81789,22.29917l-14.58404,-50.48621l-2.51618,-9.81497l0.20435,-9.21423l-5.67081,-23.80845l-3.20128,-14.75744l0.72623,-6.94565c0,0 28.49275,-7.12144 36.36139,-7.7182c4.04647,-0.30689 11.98155,1.04963 11.98155,1.04963c0,0 4.47554,6.84389 7.66198,9.33504c2.77603,2.17029 5.99845,8.1181 5.99845,8.1181z" fill="none" stroke="#000000" stroke-width="2.5" stroke-linecap="round"/><path d="M174.33214,126.16693c-9.44248,-28.25956 1.17202,-57.22507 23.70814,-64.69627c22.53613,-7.4712 48.4599,9.3811 57.90239,37.64065c9.44248,28.25956 -1.17202,57.22507 -23.70814,64.69627c-22.53613,7.4712 -48.4599,-9.3811 -57.90239,-37.64065z" fill="#cbcbcb" stroke="#000000" stroke-width="2.5" stroke-linecap="butt"/><path d="M228.84034,73.98977c0,0 10.17899,18.36537 13.51156,27.77636c3.18932,9.00646 6.07296,27.52935 6.07296,27.52935" fill="none" stroke="#000000" stroke-width="2.5" stroke-linecap="round"/><path d="M174.33214,126.16693c-9.44248,-28.25957 1.17201,-57.22507 23.70814,-64.69627c22.53613,-7.47121 48.45991,9.38109 57.90239,37.64065c9.44249,28.25957 -1.17202,57.22507 -23.70814,64.69628c-22.53613,7.4712 -48.4599,-9.3811 -57.90239,-37.64065z" fill="none" stroke="#000000" stroke-width="2.5" stroke-linecap="butt"/><path d="M255.31809,97.31232l-32.22435,10.37305" fill="none" stroke="#000000" stroke-width="2.5" stroke-linecap="round"/><path d="M175.74437,124.90521c-13.12442,-37.02967 11.2212,-56.48791 11.2212,-56.48791c0,0 -8.2459,24.41805 1.61817,51.19322c3.1132,8.45048 5.87613,12.25292 11.72941,21.57943c9.88263,15.74679 28.03753,22.50008 28.03753,22.50008c0,0 -35.60443,9.18482 -52.6063,-38.78481z" data-paper-data="{&quot;index&quot;:null}" fill-opacity="0.28235" fill="#000000" stroke="#9e9e9e" stroke-width="0.5" stroke-linecap="round"/><path d="M174.33216,126.16694c-9.44248,-28.25957 1.17201,-57.22507 23.70814,-64.69627c22.53613,-7.47121 48.45991,9.38109 57.90239,37.64065c9.44249,28.25957 -1.17202,57.22507 -23.70814,64.69628c-22.53613,7.4712 -48.4599,-9.3811 -57.90239,-37.64065z" data-paper-data="{&quot;index&quot;:null}" fill="none" stroke="#000000" stroke-width="2.5" stroke-linecap="butt"/><path d="M250.47748,166.18339c2.45487,3.77157 1.89705,8.48743 -1.24593,10.53315c-3.14298,2.04573 -7.68093,0.64665 -10.1358,-3.12493c-2.45487,-3.77157 -1.89705,-8.48743 1.24593,-10.53315c3.14298,-2.04573 7.68093,-0.64665 10.1358,3.12493z" fill="#c70000" stroke="#a80000" stroke-width="5" stroke-linecap="butt"/><path d="M170.94528,173.74607c0.79056,-2.37171 3.16227,-1.58115 3.16227,-1.58115l1.72895,0.91249c1.0945,-0.20919 5.69091,-1.16021 6.4092,-0.91607c1.59507,0.54215 2.67941,2.04293 4.01911,3.06439c0,0 1.91662,1.60517 0.31145,3.52179c-1.60517,1.91662 -3.52179,0.31145 -3.52179,0.31145c-0.70402,-0.69016 -1.20412,-1.68628 -2.11206,-2.07047c-1.31552,-0.55665 -2.76401,0.73168 -4.16704,0.99997l-4.24896,-1.08013c0,0 -2.37171,-0.79056 -1.58115,-3.16227z" fill="#c70000" stroke="none" stroke-width="0.5" stroke-linecap="butt"/><path d="M169.29919,187.27887c-0.90156,-2.33178 1.43022,-3.23334 1.43022,-3.23334l1.45437,-0.56115c3.06609,-1.29017 6.16971,-2.49523 9.30629,-3.60306c0,0 2.35747,-0.83205 3.18953,1.52542c0.83205,2.35747 -1.52542,3.18953 -1.52542,3.18953c-3.04402,1.07358 -6.05558,2.2431 -9.03016,3.4963l-1.5915,0.61651c0,0 -2.33178,0.90156 -3.23334,-1.43022z" fill="#c70000" stroke="none" stroke-width="0.5" stroke-linecap="butt"/><path d="M170.00253,202.35228c-1.10707,-2.24152 1.13445,-3.34859 1.13445,-3.34859l1.08368,-0.50908c4.76648,-3.21248 8.15172,-6.64352 11.35514,-11.47315c0,0 1.38675,-2.08013 3.46687,-0.69338c2.08013,1.38675 0.69338,3.46687 0.69338,3.46687c-3.59386,5.36607 -7.4094,9.22574 -12.70962,12.83822l-1.67531,0.85356c0,0 -2.24152,1.10707 -3.34859,-1.13445z" fill="#c70000" stroke="none" stroke-width="0.5" stroke-linecap="butt"/><path d="M282.85283,161.60229l16.25,0.5l6,4l-0.25,9.5l-3.5,1l0.75,1.75l-4.25,3l-0.75,3.5l-3.25,4.5l-3,-0.75l-5.25,-1.75l-7.5,-5.5l-2.25,-8l2.75,-8.25z" fill="#c9c9c9" stroke="#000000" stroke-width="2.5" stroke-linecap="round"/><path d="M291.60283,173.8523l-6.25,-1" fill="none" stroke="#000000" stroke-width="0.5" stroke-linecap="round"/><path d="M289.60283,165.85229h2.5" fill="none" stroke="#000000" stroke-width="0.5" stroke-linecap="round"/><path d="M301.85283,171.6023h-2.5" fill="none" stroke="#000000" stroke-width="1" stroke-linecap="round"/><path d="M260.50635,165.96253l16.25,0.5l6,4l-0.25,9.5l-3.5,1l0.75,1.75l-4.25,3l-0.75,3.5l-3.25,4.5l-3,-0.75l-5.25,-1.75l-7.5,-5.5l-2.25,-8l2.75,-8.25z" fill="#c9c9c9" stroke="#000000" stroke-width="2.5" stroke-linecap="round"/><path d="M263.00635,177.21253l6.25,1" fill="none" stroke="#000000" stroke-width="0.5" stroke-linecap="round"/><path d="M267.25635,170.21253h2.5" fill="none" stroke="#000000" stroke-width="0.5" stroke-linecap="round"/><path d="M279.50635,175.96253h-2.5" fill="none" stroke="#000000" stroke-width="1" stroke-linecap="round"/></g></g></svg>