<svg version="1.1" xmlns="http://www.w3.org/2000/svg" xmlns:xlink="http://www.w3.org/1999/xlink" width="207.22784" height="89.32475" viewBox="0,0,207.22784,89.32475"><g transform="translate(-131.27157,-179.06154)"><g data-paper-data="{&quot;isPaintingLayer&quot;:true}" fill-rule="nonzero" stroke-linejoin="miter" stroke-miterlimit="10" stroke-dasharray="" stroke-dashoffset="0" style="mix-blend-mode: normal"><g stroke="#000000" stroke-linecap="round"><path d="M242.82356,203.52752l-0.95098,-16.22985l3.44906,-6.33278l9.48445,-0.5981l1.30811,3.39689l1.67615,-0.90306l3.36701,3.96556l3.55293,0.43492l4.77187,2.8358l-0.47951,3.05493l-1.2749,5.38513l-4.80932,7.96055l-7.7675,2.95438l-8.46236,-2.0034z" fill="#c9c9c9" stroke-width="2.5"/><path d="M253.80582,200.03434l0.43872,-6.31428" fill="none" stroke-width="0.5"/><path d="M246.45475,196.42545l-0.22292,-2.49004" fill="none" stroke-width="0.5"/><path d="M251.08952,183.71153l0.22292,2.49004" fill="none" stroke-width="1"/></g><path d="M332.18463,230.55256l-16.12675,1.49997l-4.58716,-16.31059l4.21296,-20.25152l3.68606,-0.69171l13.33992,3.98362l2.39735,8.7082l-3.33834,14.74518z" fill="#666666" stroke="#000000" stroke-width="2.5" stroke-linecap="round"/><path d="M334.2887,255.09262l-16.12675,1.49997l-4.58716,-16.31059l4.21296,-20.25152l3.68606,-0.69171l13.33991,3.98364l2.39734,8.7082l-3.33834,14.74518z" fill="#666666" stroke="#000000" stroke-width="2.5" stroke-linecap="round"/><path d="M229.99924,200.56548l24.29313,-3.65846l38.13264,-2.87299l20.00454,1.0507l3.465,-2.13147l7.27589,67.20891l-52.47698,2.77849l-10.12977,0.22935l-8.92885,-2.2846l-24.47411,0.13483l-15.09903,-0.22199l-6.60102,-2.27947c0,0 -0.48757,-29.36518 0.71215,-37.16469c0.61696,-4.01093 3.7343,-11.43303 3.7343,-11.43303c0,0 7.67927,-2.81035 10.82699,-5.35024c2.74231,-2.21276 9.26511,-4.00532 9.26511,-4.00532z" fill="#979797" stroke="#000000" stroke-width="2.5" stroke-linecap="round"/><path d="M323.03838,260.00435c0,0 -45.91374,3.55772 -60.34566,1.58021c-11.20573,-1.53543 -28.21322,-1.14874 -39.99262,-1.62412c-10.29219,-0.41535 -16.1757,-1.7856 -16.1757,-1.7856c0,0 -0.69474,-17.33058 -0.79858,-25.5966c-0.10653,-8.48071 4.61597,-22.27305 4.61597,-22.27305l17.00629,-8.77059l-3.74854,45.16449c0,0 45.70255,0.66139 63.61514,-0.63082c23.69804,-1.70956 33.98821,-9.66094 33.98821,-9.66094z" fill="#787878" stroke="#787878" stroke-width="0.5" stroke-linecap="round"/><path d="M229.99922,200.56549l24.29313,-3.65846l38.13264,-2.87299l20.00456,1.05069l3.465,-2.13147l7.27589,67.20891l-52.47697,2.77848l-10.12977,0.22935l-8.92885,-2.2846l-24.47411,0.13483l-15.09904,-0.222l-6.60102,-2.27947c0,0 -0.48757,-29.36518 0.71215,-37.16469c0.61696,-4.01092 3.7343,-11.43303 3.7343,-11.43303c0,0 7.67927,-2.81035 10.82699,-5.35024c2.7423,-2.21276 9.26512,-4.00532 9.26512,-4.00532z" fill="none" stroke="#000000" stroke-width="2.5" stroke-linecap="round"/><g stroke="#000000" stroke-linecap="round"><path d="M253.27596,260.1676l-0.95098,-16.22985l3.44906,-6.33278l9.48445,-0.5981l1.30811,3.39689l1.67615,-0.90306l3.36701,3.96556l3.55293,0.43492l4.77187,2.8358l-0.47951,3.05493l-1.2749,5.38513l-4.80932,7.96055l-7.7675,2.95438l-8.46236,-2.0034z" fill="#c9c9c9" stroke-width="2.5"/><path d="M264.25822,256.67441l0.43872,-6.31428" fill="none" stroke-width="0.5"/><path d="M256.90714,253.06552l-0.22292,-2.49004" fill="none" stroke-width="0.5"/><path d="M261.54191,240.35161l0.22292,2.49004" fill="none" stroke-width="1"/></g><g><g><path d="M190.17274,266.83269c-29.66339,2.80116 -55.4747,-14.09396 -57.65117,-37.73626c-2.17648,-23.64232 20.10608,-45.07897 49.76947,-47.88011c29.66339,-2.80116 55.4747,14.09396 57.65117,37.73626c2.17648,23.64232 -20.10608,45.07897 -49.76947,47.88011z" fill="#cbcbcb" stroke="#000000" stroke-width="2.5" stroke-linecap="butt"/><path d="M151.68708,201.92927c0,0 20.19268,-5.758 30.11374,-6.87399c9.4946,-1.06803 28.18947,0.31565 28.18947,0.31565" fill="none" stroke="#000000" stroke-width="2.5" stroke-linecap="round"/><path d="M189.2634,265.17155c-39.03928,4.40251 -52.48214,-23.71549 -52.48214,-23.71549c0,0 21.91798,13.5587 50.23093,10.01092c8.93582,-1.11971 13.26494,-2.9503 23.67424,-6.54072c17.57498,-6.06202 28.26219,-22.21722 28.26219,-22.21722c0,0 0.88774,36.75933 -49.68522,42.4625z" fill="#9e9e9e" stroke="#9e9e9e" stroke-width="0.5" stroke-linecap="round"/><path d="M190.17274,266.83269c-29.6634,2.80114 -55.47471,-14.09395 -57.65117,-37.73625c-2.17649,-23.64231 20.10608,-45.07897 49.76947,-47.88011c29.66339,-2.80115 55.4747,14.09396 57.65118,37.73626c2.17648,23.64232 -20.10608,45.07897 -49.76947,47.88011z" fill="none" stroke="#000000" stroke-width="2.5" stroke-linecap="butt"/></g><path d="M183.20754,215.15341l-2.81017,-33.73591" fill="none" stroke="#000000" stroke-width="2.5" stroke-linecap="round"/></g></g></g></svg>