<svg version="1.1" xmlns="http://www.w3.org/2000/svg" xmlns:xlink="http://www.w3.org/1999/xlink" width="107.39625" height="197.36935" viewBox="0,0,107.39625,197.36935"><g transform="translate(-167.59655,-53.01748)"><g data-paper-data="{&quot;isPaintingLayer&quot;:true}" fill-rule="nonzero" stroke-linejoin="miter" stroke-miterlimit="10" stroke-dasharray="" stroke-dashoffset="0" style="mix-blend-mode: normal"><path d="M245.8569,144.52877l9.06204,22.83462l11.42939,36.49275l3.50441,19.72321l2.86043,2.89264l-63.81789,22.29917l-14.58405,-50.48622l-2.51618,-9.81497l0.20435,-9.21423l-5.67081,-23.80845l-3.20129,-14.75743l0.72623,-6.94565c0,0 28.49275,-7.12144 36.36139,-7.7182c4.04648,-0.30689 11.98155,1.04963 11.98155,1.04963c0,0 4.47554,6.84389 7.66198,9.33504c2.77603,2.1703 5.99845,8.1181 5.99845,8.1181z" fill="#979797" stroke="#000000" stroke-width="2.5" stroke-linecap="round"/><path d="M209.0191,248.6068c0,0 -13.85753,-43.91694 -15.19787,-58.42192c-1.04072,-11.26245 -5.26686,-27.74104 -7.46998,-39.32235c-1.92497,-10.11911 -1.92195,-16.16006 -1.92195,-16.16006c0,0 16.72357,-4.59932 24.75158,-6.5714c8.23651,-2.0233 22.73981,-0.54511 22.73981,-0.54511l12.3922,14.57981l-44.84084,6.57129c0,0 9.70011,44.66619 15.01313,61.82143c7.02902,22.69608 17.10313,30.91949 17.10313,30.91949z" fill="#787878" stroke="#787878" stroke-width="0.5" stroke-linecap="round"/><path d="M245.85689,144.52876l9.06204,22.83462l11.42939,36.49275l3.50441,19.72322l2.86043,2.89264l-63.81789,22.29917l-14.58404,-50.48621l-2.51618,-9.81497l0.20435,-9.21423l-5.67081,-23.80845l-3.20128,-14.75744l0.72623,-6.94565c0,0 28.49275,-7.12144 36.36139,-7.7182c4.04647,-0.30689 11.98155,1.04963 11.98155,1.04963c0,0 4.47554,6.84389 7.66198,9.33504c2.77603,2.17029 5.99845,8.1181 5.99845,8.1181z" fill="none" stroke="#000000" stroke-width="2.5" stroke-linecap="round"/><path d="M172.29509,120.73479c-9.44248,-28.25956 1.17202,-57.22507 23.70814,-64.69627c22.53613,-7.4712 48.4599,9.3811 57.90239,37.64065c9.44248,28.25956 -1.17202,57.22507 -23.70814,64.69627c-22.53613,7.4712 -48.4599,-9.3811 -57.90239,-37.64065z" fill="#cbcbcb" stroke="#000000" stroke-width="2.5" stroke-linecap="butt"/><path d="M226.80329,68.55763c0,0 10.17899,18.36537 13.51156,27.77636c3.18932,9.00646 6.07296,27.52935 6.07296,27.52935" fill="none" stroke="#000000" stroke-width="2.5" stroke-linecap="round"/><path d="M172.29509,120.73479c-9.44248,-28.25957 1.17201,-57.22507 23.70814,-64.69627c22.53613,-7.47121 48.45991,9.38109 57.90239,37.64065c9.44249,28.25957 -1.17202,57.22507 -23.70814,64.69628c-22.53613,7.4712 -48.4599,-9.3811 -57.90239,-37.64065z" fill="none" stroke="#000000" stroke-width="2.5" stroke-linecap="butt"/><path d="M221.05669,102.25323l32.22435,-10.37305" fill="none" stroke="#000000" stroke-width="2.5" stroke-linecap="round"/><path d="M173.70732,119.47307c-13.12442,-37.02967 11.2212,-56.48791 11.2212,-56.48791c0,0 -8.2459,24.41805 1.61817,51.19322c3.1132,8.45048 5.87613,12.25292 11.72941,21.57943c9.88263,15.74679 28.03753,22.50008 28.03753,22.50008c0,0 -35.60443,9.18482 -52.6063,-38.78481z" data-paper-data="{&quot;index&quot;:null}" fill-opacity="0.28235" fill="#000000" stroke="#9e9e9e" stroke-width="0.5" stroke-linecap="round"/><path d="M172.29511,120.7348c-9.44248,-28.25957 1.17201,-57.22507 23.70814,-64.69627c22.53613,-7.47121 48.45991,9.38109 57.90239,37.64065c9.44249,28.25957 -1.17202,57.22507 -23.70814,64.69628c-22.53613,7.4712 -48.4599,-9.3811 -57.90239,-37.64065z" data-paper-data="{&quot;index&quot;:null}" fill="none" stroke="#000000" stroke-width="2.5" stroke-linecap="butt"/></g></g></svg>