<svg version="1.1" xmlns="http://www.w3.org/2000/svg" xmlns:xlink="http://www.w3.org/1999/xlink" width="185.73889" height="163.53768" viewBox="0,0,185.73889,163.53768"><g transform="translate(-152.63076,-106.27467)"><g data-paper-data="{&quot;isPaintingLayer&quot;:true}" fill-rule="nonzero" stroke-linejoin="miter" stroke-miterlimit="10" stroke-dasharray="" stroke-dashoffset="0" style="mix-blend-mode: normal"><g stroke="#000000" stroke-linecap="round"><path d="M262.52146,171.71581l9.0646,-13.49613l6.57815,-2.95431l7.91254,5.26347l-1.01428,3.49589l1.88088,0.29541l0.28069,5.19459l2.5653,2.49634l2.08279,5.14534l-2.23046,2.14186l-4.27382,3.51561l-8.64613,3.427l-7.97161,-2.3486l-5.52452,-6.716z" fill="#c9c9c9" stroke-width="2.5"/><path d="M273.37841,175.58092l4.17041,-4.76132" fill="none" stroke-width="0.5"/><path d="M269.71016,168.25927l1.3294,-2.11723" fill="none" stroke-width="0.5"/><path d="M281.09389,160.94247l-1.3294,2.11723" fill="none" stroke-width="1"/></g><path d="M317.30756,247.30837l-13.74627,-8.56516l6.21869,-15.76088l15.60939,-13.57277l3.35309,1.67998l8.20922,11.24418l-3.36133,8.38341l-11.58088,9.71844z" fill="#666666" stroke="#000000" stroke-width="2.5" stroke-linecap="round"/><path d="M304.13192,268.11809l-13.74627,-8.56516l6.21869,-15.76088l15.60939,-13.57277l3.35309,1.67998l8.2092,11.24419l-3.36134,8.3834l-11.58088,9.71844z" fill="#666666" stroke="#000000" stroke-width="2.5" stroke-linecap="round"/><path d="M254.10448,161.59693l21.55379,11.78876l32.09612,20.7892l15.28983,12.94244l4.04838,0.40001l-34.87988,57.9083l-43.4585,-29.54507l-8.20313,-5.94756l-5.72574,-7.22217l-19.5655,-14.70345l-11.88604,-9.31408l-3.87565,-5.80937c0,0 17.38251,-23.67276 23.05757,-29.15594c2.91842,-2.81975 9.89172,-6.84202 9.89172,-6.84202c0,0 7.81421,2.40987 11.85716,2.29274c3.52224,-0.10205 9.79985,2.41824 9.79985,2.41824z" fill="#979797" stroke="#000000" stroke-width="2.5" stroke-linecap="round"/><path d="M292.20311,265.22007c0,0 -38.70505,-24.95291 -48.99764,-35.26085c-7.99172,-8.00364 -21.76545,-17.98806 -30.85538,-25.49496c-7.94229,-6.5591 -11.79693,-11.21043 -11.79693,-11.21043c0,0 9.93471,-14.21736 14.85432,-20.8608c5.04739,-6.816 17.15358,-14.93823 17.15358,-14.93823l18.84639,3.30925l-30.31603,33.68711c0,0 35.98368,28.18395 51.02594,37.99523c19.90063,12.98014 32.90454,12.87725 32.90454,12.87725z" fill="#787878" stroke="#787878" stroke-width="0.5" stroke-linecap="round"/><path d="M254.10448,161.59692l21.55379,11.78876l32.09612,20.7892l15.28985,12.94244l4.04838,0.40001l-34.87988,57.9083l-43.45849,-29.54508l-8.20313,-5.94756l-5.72574,-7.22217l-19.5655,-14.70345l-11.88604,-9.3141l-3.87565,-5.80937c0,0 17.38251,-23.67276 23.05757,-29.15594c2.91842,-2.81975 9.89172,-6.84202 9.89172,-6.84202c0,0 7.81421,2.40987 11.85716,2.29274c3.52223,-0.10205 9.79986,2.41825 9.79986,2.41825z" fill="none" stroke="#000000" stroke-width="2.5" stroke-linecap="round"/><g stroke="#000000" stroke-linecap="round"><path d="M236.56626,223.13252l9.0646,-13.49613l6.57815,-2.95431l7.91254,5.26347l-1.01428,3.49589l1.88088,0.29541l0.28069,5.19459l2.5653,2.49634l2.08279,5.14534l-2.23046,2.14186l-4.27382,3.51561l-8.64613,3.427l-7.97161,-2.3486l-5.52452,-6.716z" fill="#c9c9c9" stroke-width="2.5"/><path d="M247.42321,226.99763l4.17041,-4.76132" fill="none" stroke-width="0.5"/><path d="M245.08436,217.55875l-1.3294,2.11723" fill="none" stroke-width="0.5"/><path d="M253.80929,214.47642l1.3294,-2.11723" fill="none" stroke-width="1"/></g><g><g><path d="M182.29616,190.25098c-25.31026,-15.72113 -35.63445,-44.79138 -23.05974,-64.93021c12.57472,-20.13883 43.28655,-23.72006 68.59681,-7.99893c25.31026,15.72113 35.63445,44.79138 23.05974,64.93021c-12.57472,20.13883 -43.28655,23.72006 -68.59681,7.99893z" fill="#cbcbcb" stroke="#000000" stroke-width="2.5" stroke-linecap="butt"/><path d="M190.93465,115.29115c0,0 19.55997,7.63586 28.13351,12.75126c8.20501,4.89551 22.2507,17.31047 22.2507,17.31047" fill="none" stroke="#000000" stroke-width="2.5" stroke-linecap="round"/><path d="M182.57749,188.37825c-33.74351,-20.12021 -27.42948,-50.64013 -27.42948,-50.64013c0,0 9.24376,24.05803 33.93075,38.36755c7.79144,4.51621 12.34566,5.67869 22.80532,9.11965c17.66,5.8097 35.94462,-0.58401 35.94462,-0.58401c0,0 -21.53859,29.80143 -65.2512,3.73694z" fill="#9e9e9e" stroke="#9e9e9e" stroke-width="0.5" stroke-linecap="round"/><path d="M182.29616,190.25098c-25.31026,-15.72114 -35.63446,-44.79138 -23.05974,-64.9302c12.57471,-20.13884 43.28656,-23.72008 68.59681,-7.99893c25.31026,15.72114 35.63445,44.79138 23.05974,64.93022c-12.57472,20.13883 -43.28655,23.72006 -68.59681,7.99893z" fill="none" stroke="#000000" stroke-width="2.5" stroke-linecap="butt"/></g><path d="M208.02544,144.8939l18.17849,-28.55786" fill="none" stroke="#000000" stroke-width="2.5" stroke-linecap="round"/></g></g></g></svg>