<svg version="1.1" xmlns="http://www.w3.org/2000/svg" xmlns:xlink="http://www.w3.org/1999/xlink" width="93.74063" height="189.64362" viewBox="0,0,93.74063,189.64362"><g transform="translate(-204.13033,-50.09858)"><g data-paper-data="{&quot;isPaintingLayer&quot;:true}" fill-rule="nonzero" stroke-linejoin="miter" stroke-miterlimit="10" stroke-dasharray="" stroke-dashoffset="0" style="mix-blend-mode: normal"><path d="M273.09479,150.98202l1.4777,24.52258l-0.53869,38.23691l-2.83029,19.83117l1.81401,3.64126l-67.58997,1.25398l1.91188,-52.51569l0.67482,-10.10987l3.07167,-8.68957l2.04803,-24.38864l1.56747,-15.01909l2.85899,-6.37147c0,0 29.29168,2.13283 36.95314,4.02324c3.93994,0.97215 11.05451,4.73889 11.05451,4.73889c0,0 2.1144,7.89928 4.3635,11.26094c1.95942,2.92869 3.16321,9.58535 3.16321,9.58535z" fill="#979797" stroke="#000000" stroke-width="2.5" stroke-linecap="round"/><path d="M205.59652,238.35045c0,0 0.55052,-46.04808 3.80702,-60.24618c2.52852,-11.02418 3.6599,-27.9984 5.18374,-39.68849c1.33144,-10.21416 3.22086,-15.95204 3.22086,-15.95204c0,0 17.32349,0.85337 25.56585,1.48702c8.45643,0.6501 21.77273,6.58365 21.77273,6.58365l7.21923,17.72061l-44.65033,-7.76087c0,0 -4.73399,45.46152 -5.04417,63.41798c-0.41037,23.75607 6.59177,34.71427 6.59177,34.71427z" fill="#787878" stroke="#787878" stroke-width="0.5" stroke-linecap="round"/><path d="M273.09479,150.98201l1.4777,24.52258l-0.53869,38.23691l-2.83029,19.83118l1.81401,3.64126l-67.58997,1.25398l1.91189,-52.51568l0.67482,-10.10987l3.07167,-8.68957l2.04803,-24.38864l1.56748,-15.0191l2.85899,-6.37147c0,0 29.29168,2.13283 36.95314,4.02324c3.93993,0.97215 11.05451,4.73889 11.05451,4.73889c0,0 2.1144,7.89928 4.3635,11.26094c1.95942,2.92868 3.16321,9.58536 3.16321,9.58536z" fill="none" stroke="#000000" stroke-width="2.5" stroke-linecap="round"/><path d="M210.64283,105.40521c-0.14495,-29.795 18.98442,-53.99698 42.72662,-54.05663c23.74221,-0.05965 43.10656,24.04562 43.25151,53.84062c0.14495,29.795 -18.98442,53.99698 -42.72662,54.05663c-23.74221,0.05965 -43.10656,-24.04562 -43.25151,-53.84062z" fill="#cbcbcb" stroke="#000000" stroke-width="2.5" stroke-linecap="butt"/><path d="M278.71943,72.86021c0,0 3.93451,20.62567 4.16141,30.60672c0.21715,9.55201 -2.82801,28.04903 -2.82801,28.04903" fill="none" stroke="#000000" stroke-width="2.5" stroke-linecap="round"/><path d="M210.64283,105.40521c-0.14494,-29.79501 18.98441,-53.99699 42.72661,-54.05663c23.74221,-0.05966 43.10657,24.04562 43.25151,53.84062c0.14495,29.79501 -18.98442,53.99698 -42.72662,54.05664c-23.74221,0.05965 -43.10656,-24.04562 -43.25151,-53.84062z" fill="none" stroke="#000000" stroke-width="2.5" stroke-linecap="butt"/><path d="M262.73732,103.07592l33.85211,0.20921" fill="none" stroke="#000000" stroke-width="2.5" stroke-linecap="round"/><path d="M212.37846,104.64762c-0.90389,-39.27633 28.30078,-50.1584 28.30078,-50.1584c0,0 -15.45909,20.62166 -14.45007,49.13817c0.31846,9.00007 1.75573,13.47517 4.40366,24.16317c4.47074,18.04551 19.60862,30.13069 19.60862,30.13069c0,0 -36.69206,-2.39358 -37.86299,-53.27362z" data-paper-data="{&quot;index&quot;:null}" fill-opacity="0.28235" fill="#000000" stroke="#9e9e9e" stroke-width="0.5" stroke-linecap="round"/><path d="M210.64285,105.40522c-0.14494,-29.79501 18.98441,-53.99699 42.72661,-54.05663c23.74221,-0.05966 43.10657,24.04562 43.25151,53.84062c0.14495,29.79501 -18.98442,53.99698 -42.72662,54.05664c-23.74221,0.05965 -43.10656,-24.04562 -43.25151,-53.84062z" data-paper-data="{&quot;index&quot;:null}" fill="none" stroke="#000000" stroke-width="2.5" stroke-linecap="butt"/></g></g></svg>